<?xml version="1.0" encoding="UTF-8" standalone="no"?>
<!DOCTYPE svg PUBLIC "-//W3C//DTD SVG 1.1//EN" "http://www.w3.org/Graphics/SVG/1.1/DTD/svg11.dtd">
<svg width="100%" height="100%" viewBox="650 400 826 650" version="1.1" xmlns="http://www.w3.org/2000/svg" xmlns:xlink="http://www.w3.org/1999/xlink" xml:space="preserve" style="fill:black;fill-rule:evenodd;clip-rule:evenodd;stroke-linejoin:round;stroke-miterlimit:1.41421;">
                <path class="letter-d" d="M1129.16,404.33L1129.16,628.95L1127.16,628.95C1123.12,623.66 1118.04,618.08 1111.83,612.29C1105.58,606.54 1098.12,601.20 1089.50,596.33C1080.83,591.41 1070.70,587.29 1059.16,584C1047.58,580.66 1034.45,578.95 1019.83,578.95C997.16,578.95 976.25,583.33 957.16,591.95C938.04,600.66 921.58,612.54 907.83,627.66C894.04,642.75 883.37,660.54 875.83,681C868.25,701.41 864.50,723.41 864.50,746.95C864.50,770.54 868.16,792.66 875.50,813.33C882.83,833.95 893.25,852 906.83,867.29C920.37,882.66 936.83,894.87 956.16,904C975.50,913.08 997.37,917.66 1021.83,917.66C1044.45,917.66 1065.70,912.75 1085.50,903C1105.25,893.20 1120.70,879 1131.83,860.33L1133.16,860.33L1133.16,908.33L1209.16,908.33L1209.16,404.33L1129.16,404.33ZM997.16,841.66C985.58,835.41 976.04,827.41 968.50,817.66C960.91,807.87 955.25,796.75 951.50,784.33C947.70,771.87 945.83,759.41 945.83,746.95C945.83,734.54 947.70,722.20 951.50,709.95C955.25,697.75 960.91,686.75 968.50,677C976.04,667.20 985.58,659.33 997.16,653.33C1008.70,647.33 1022.25,644.33 1037.83,644.33C1052.50,644.33 1065.58,647.41 1077.16,653.66C1088.70,659.87 1098.58,667.87 1106.83,677.66C1115.04,687.41 1121.25,698.54 1125.50,711C1129.70,723.41 1131.83,735.87 1131.83,748.33C1131.83,760.75 1129.70,773.08 1125.50,785.33C1121.25,797.54 1115.04,808.54 1106.83,818.29C1098.58,828.08 1088.70,836 1077.16,842C1065.58,847.95 1052.50,851 1037.83,851C1022.25,851 1008.70,847.87 997.16,841.66Z" style="fill:#33526c;fill-rule:nonzero"/>
                <path class="closing-bracket" d="M1291.79,420.33L1291.79,476.33L1328.50,476.33C1341.37,476.33 1349.50,480.54 1352.79,489C1356.16,497.41 1357.83,506.54 1357.83,516.33L1357.83,641.66C1357.83,654.54 1360.25,665.54 1365.16,674.66C1370.04,683.75 1375.83,691.20 1382.45,696.95C1389.16,702.75 1396.25,707.20 1403.79,710.33C1411.37,713.41 1417.83,715.20 1423.12,715.66L1423.12,716.95C1417.83,717.41 1411.37,718.87 1403.79,721.33C1396.25,723.75 1389.16,727.87 1382.45,733.62C1375.83,739.41 1370.04,747.20 1365.16,757C1360.25,766.75 1357.83,779.41 1357.83,794.95L1357.83,916.29C1357.83,926.08 1356.16,935.20 1352.79,943.66C1349.50,952.08 1341.37,956.29 1328.50,956.29L1291.79,956.29L1291.79,1012.33L1340.50,1012.33C1351.58,1012.33 1362.25,1010.54 1372.50,1006.95C1382.70,1003.41 1391.79,997.95 1399.83,990.66C1407.83,983.33 1414.16,974.20 1418.83,963.33C1423.50,952.41 1425.83,939.41 1425.83,924.33L1425.83,796.95C1425.83,786.33 1427.37,777.66 1430.50,771C1433.58,764.33 1437.37,759.08 1441.79,755.29C1446.25,751.54 1451.16,749 1456.45,747.66C1461.83,746.33 1466.91,745.62 1471.83,745.62L1471.83,687C1466.91,687 1461.83,686.33 1456.45,684.95C1451.16,683.62 1446.25,681.29 1441.79,678C1437.37,674.66 1433.58,669.87 1430.50,663.62C1427.37,657.41 1425.83,649.66 1425.83,640.33L1425.83,508.33C1425.83,493.20 1423.50,480.20 1418.83,469.29C1414.16,458.41 1407.83,449.29 1399.83,441.95C1391.79,434.66 1382.70,429.20 1372.50,425.66C1362.25,422.08 1351.58,420.33 1340.50,420.33L1291.79,420.33Z" style="fill:#33526c;fill-rule:nonzero;"/>
                <path class="opening-bracket" d="M783.83,420.33C772.70,420.33 762.04,422.08 751.83,425.66C741.58,429.20 732.45,434.66 724.50,441.95C716.50,449.29 710.16,458.41 705.50,469.29C700.83,480.20 698.50,493.20 698.50,508.33L698.50,640.33C698.50,649.66 696.91,657.41 693.79,663.62C690.70,669.87 686.91,674.66 682.45,678C678.04,681.29 673.04,683.62 667.50,684.95C661.91,686.33 656.91,687 652.50,687L652.50,745.62C656.91,745.62 661.91,746.33 667.50,747.66C673.04,749 678.04,751.54 682.45,755.29C686.91,759.08 690.70,764.33 693.79,771C696.91,777.66 698.50,786.33 698.50,796.95L698.50,924.33C698.50,939.41 700.83,952.41 705.50,963.33C710.16,974.20 716.50,983.33 724.50,990.66C732.45,997.95 741.58,1003.41 751.83,1006.95C762.04,1010.54 772.70,1012.33 783.83,1012.33L832.45,1012.33L832.45,956.29L795.83,956.29C782.91,956.29 774.83,952.08 771.45,943.66C768.16,935.20 766.50,926.08 766.50,916.29L766.50,794.95C766.50,779.41 764.04,766.75 759.16,757C754.25,747.20 748.50,739.41 741.79,733.62C735.16,727.87 728.04,723.75 720.45,721.33C712.91,718.87 706.45,717.41 701.12,716.95L701.12,715.66C706.45,715.20 712.91,713.41 720.45,710.33C728.04,707.20 735.16,702.75 741.79,696.95C748.50,691.20 754.25,683.75 759.16,674.66C764.04,665.54 766.50,654.54 766.50,641.66L766.50,516.33C766.50,506.54 768.16,497.41 771.45,489C774.83,480.54 782.91,476.33 795.83,476.33L832.45,476.33L832.45,420.33L783.83,420.33Z" style="fill:#33526c;fill-rule:nonzero;"/>
</svg>
